/* XPM */
static char *bitcoin48[] = {
/* columns rows colors chars-per-pixel */
"48 48 44 1 ",
"  c #0E0E0F",
". c #12110F",
"X c #0E0F10",
"o c #0F1010",
"O c #131210",
"+ c #191710",
"@ c #1C1910",
"# c #231E10",
"$ c #262010",
"% c #2C2510",
"& c #302710",
"* c #352B11",
"= c #392E11",
"- c #3E3211",
"; c #443611",
": c #4B3B11",
"> c #503F11",
", c #554312",
"< c #5A4612",
"1 c #5E4911",
"2 c #644D12",
"3 c #675012",
"4 c #6C5413",
"5 c #705712",
"6 c #755A13",
"7 c #7A5E13",
"8 c #7E6113",
"9 c #826412",
"0 c #876814",
"q c #8B6B15",
"w c #856718",
"e c #876918",
"r c #8D6D19",
"t c #916F16",
"y c #947117",
"u c #937219",
"i c #9A7618",
"p c #9D7919",
"a c #A27D1A",
"s c #A6801B",
"d c #AC851D",
"f c #AF881D",
"g c #B1891E",
"h c None",
/* pixels */
"hhhhhhhhhhhhhhhhhhhhhhhhhhhhhhhhhhhhhhhhhhhhhhhh",
"hhhhhhhhhhhhhhhhhhhhhhhhhhhhhhhhhhhhhhhhhhhhhhhh",
"hhhhhhhhhhhhhhhhhhhhhhhhhhhhhhhhhhhhhhhhhhhhhhhh",
"hhhhhhhhhhhhhhhhhhhhhhhhhhhhhhhhhhhhhhhhhhhhhhhh",
"hhhhhhhhhhhhhhhhhhhhhhhhhhhhhhhhhhhhhhhhhhhhhhhh",
"hhhhhhhhhhhhhhhhhhhhhhhhhhhhhhhhhhhhhhhhhhhhhhhh",
"hhhhhhhhhhhhhhhhhhhhhhhhhhhhhhhhhhhhhhhhhhhhhhhh",
"hhhhhhhhhhhhhhhhhhhhypapq0hhhhhhhhhhhhhhhhhhhhhh",
"hhhhhhhhhhhhhhhhhqqq0quppsa0hhhhhhhhhhhhhhhhhhhh",
"hhhhhhhhhhhhhhhtr0099909tiy00ytrhhhhhhhhhhhhhhhh",
"hhhhhhhhhhhhhyy00999900907<-;<6qythhhhhhhhhhhhhh",
"hhhhhhhhhhhhyr97,*&=:<353*.  o+;4yiqhhhhhhhhhhhh",
"hhhhhhhhhhhyq82$o   XOO@.ooooo  @:qathhhhhhhhhhh",
"hhhhhhhhhht07:Oo.@++OoXo.o  .+@+.o*9sthhhhhhhhhh",
"hhhhhhhhht08:%:5eyr06,&. +*,45652,*;rsqhhhhhhhhh",
"hhhhhhhhrq953udggggggda6:6rqq00009857ap0hhhhhhhh",
"hhhhhhhht99yggdapppsdgggiq99999899999qathhhhhhhh",
"hhhhhhhyq90dgi097225qpfgft9999899099980q9hhhhhhh",
"hhhhhhhy99tgi99q8:%+=6ydga07>=%*;29999999hhhhhhh",
"hhhhhhhy99ta9990tye:&9qiggy<o  .+#,989989hhhhhhh",
"hhhhhhht9999999999qt0p00sga7$$,7rrtyq0999hhhhhhh",
"hhhhhhhe09999767989qiq98qgs06ydgggggdp099hhhhhhh",
"hhhhhhh999995%@$,0ryq89,=pstsggdssdgfgaq9hhhhhhh",
"hhhhhhh999995:>29uq0991..3pdgdpt000ysggp9hhhhhhh",
"hhhhhhh9999999000999992O#8dgaq94:-;3tdgdqhhhhhhh",
"hhhhhhh0099999999999998;4sgaq9q3*%;80agfyhhhhhhh",
"hhhhhhh0i0999999992<qt98agaq9qddaasptifgphhhhhhh",
"hhhhhhh9asq99521>&+@5y99qu0680pdfgaqayfgahhhhhhh",
"hhhhhhh9qddiq5;$O..#2q99996%;69qqq0iyrfgihhhhhhh",
"hhhhhhh99qdgdai95259i099998<=;189qit9tggyhhhhhhh",
"hhhhhhhh99qaggggdddggt999999977qttq99igdqhhhhhhh",
"hhhhhhhh9999yaddgggda0979999999999978agphhhhhhhh",
"hhhhhhhhh99539qqyyyq06>&>6999999972;0fsrhhhhhhhh",
"hhhhhhhhh996=&:<222,-$. o@*:2221:%@2dduhhhhhhhhh",
"hhhhhhhhhh995% oOOOo  o ooooOOOOX@3sgihhhhhhhhhh",
"hhhhhhhhhhh997;+  oooo ++.o XXXO=8ddphhhhhhhhhhh",
"hhhhhhhhhhhh9993-#.OXO*7064<=%;4pgsuhhhhhhhhhhhh",
"hhhhhhhhhhhhhh90073<:4yyaggfsasgsi0hhhhhhhhhhhhh",
"hhhhhhhhhhhhhhhh00q0tddsdgggdputwhhhhhhhhhhhhhhh",
"hhhhhhhhhhhhhhhhhhhh0trradatw9hhhhhhhhhhhhhhhhhh",
"hhhhhhhhhhhhhhhhhhhhhh90000hhhhhhhhhhhhhhhhhhhhh",
"hhhhhhhhhhhhhhhhhhhhhhhhhhhhhhhhhhhhhhhhhhhhhhhh",
"hhhhhhhhhhhhhhhhhhhhhhhhhhhhhhhhhhhhhhhhhhhhhhhh",
"hhhhhhhhhhhhhhhhhhhhhhhhhhhhhhhhhhhhhhhhhhhhhhhh",
"hhhhhhhhhhhhhhhhhhhhhhhhhhhhhhhhhhhhhhhhhhhhhhhh",
"hhhhhhhhhhhhhhhhhhhhhhhhhhhhhhhhhhhhhhhhhhhhhhhh",
"hhhhhhhhhhhhhhhhhhhhhhhhhhhhhhhhhhhhhhhhhhhhhhhh",
"hhhhhhhhhhhhhhhhhhhhhhhhhhhhhhhhhhhhhhhhhhhhhhhh"
};
