/* XPM */
static char *bitcoin96[] = {
/* columns rows colors chars-per-pixel */
"96 96 42 1 ",
"  c #0F0F0F",
". c #11100F",
"X c #0F0F10",
"o c #0F1010",
"O c #101010",
"+ c #191610",
"@ c #1D1910",
"# c #221D10",
"$ c #262010",
"% c #2B2410",
"& c #302710",
"* c #342A11",
"= c #392E11",
"- c #3D3111",
"; c #433511",
": c #473811",
"> c #4B3B11",
", c #503F11",
"< c #544211",
"1 c #594612",
"2 c #5D4912",
"3 c #634D12",
"4 c #675012",
"5 c #6C5312",
"6 c #715712",
"7 c #745A12",
"8 c #7A5E13",
"9 c #7E6113",
"0 c #826312",
"q c #876814",
"w c #8B6B15",
"e c #906F16",
"r c #947217",
"t c #977418",
"y c #9A7618",
"u c #9D7919",
"i c #A27D1A",
"p c #A6811B",
"a c #AC851D",
"s c #AF881D",
"d c #B1891E",
"f c None",
/* pixels */
"ffffffffffffffffffffffffffffffffffffffffffffffffffffffffffffffffffffffffffffffffffffffffffffffff",
"ffffffffffffffffffffffffffffffffffffffffffffffffffffffffffffffffffffffffffffffffffffffffffffffff",
"ffffffffffffffffffffffffffffffffffffffffffffffffffffffffffffffffffffffffffffffffffffffffffffffff",
"ffffffffffffffffffffffffffffffffffffffffffffffffffffffffffffffffffffffffffffffffffffffffffffffff",
"ffffffffffffffffffffffffffffffffffffffffffffffffffffffffffffffffffffffffffffffffffffffffffffffff",
"ffffffffffffffffffffffffffffffffffffffffffffffffffffffffffffffffffffffffffffffffffffffffffffffff",
"ffffffffffffffffffffffffffffffffffffffffffffffffffffffffffffffffffffffffffffffffffffffffffffffff",
"ffffffffffffffffffffffffffffffffffffffffffffffffffffffffffffffffffffffffffffffffffffffffffffffff",
"ffffffffffffffffffffffffffffffffffffffffffffffffffffffffffffffffffffffffffffffffffffffffffffffff",
"ffffffffffffffffffffffffffffffffffffffffffffffffffffffffffffffffffffffffffffffffffffffffffffffff",
"ffffffffffffffffffffffffffffffffffffffffffffffffffffffffffffffffffffffffffffffffffffffffffffffff",
"ffffffffffffffffffffffffffffffffffffffffffffffffffffffffffffffffffffffffffffffffffffffffffffffff",
"ffffffffffffffffffffffffffffffffffffffffffffffffffffffffffffffffffffffffffffffffffffffffffffffff",
"fffffffffffffffffffffffffffffffffffffffffffff00000ffffffffffffffffffffffffffffffffffffffffffffff",
"fffffffffffffffffffffffffffffffffffffffff0qtyuitqqq9ffffffffffffffffffffffffffffffffffffffffffff",
"fffffffffffffffffffffffffffffffffffffffqriasddarrqqeqfffffffffffffffffffffffffffffffffffffffffff",
"ffffffffffffffffffffffffffffffffffff0qrutrwwradieeyauw0fffffffffffffffffffffffffffffffffffffffff",
"fffffffffffffffffffffffffffffffff0qwreqq00000wuuisdddaw000ffffffffffffffffffffffffffffffffffffff",
"fffffffffffffffffffffffffffffffqeyrq000000000000wuaaaiw0qreq00ffffffffffffffffffffffffffffffffff",
"fffffffffffffffffffffffffffffqtytq0000000000000000qqq0000tyuyyw00fffffffffffffffffffffffffffffff",
"fffffffffffffffffffffffffffqrutq0000000000000000wq0008423680qeyyrq0fffffffffffffffffffffffffffff",
"ffffffffffffffffffffffffffeyyq900000000000000000eq07:$+O.@$;370wtitq0fffffffffffffffffffffffffff",
"ffffffffffffffffffffffff0tue0000073<:,14689000000q3$OXOo..  O#:70wuirq0fffffffffffffffffffffffff",
"fffffffffffffffffffffffqyuq00007:#.O  ..@$*:13553:@oOOOXO.OOOOO#>80waiw0ffffffffffffffffffffffff",
"ffffffffffffffffffffffqut00008>@.O O ooOXXXXoO++O  oooXOOOOO O  .$20qiat0fffffffffffffffffffffff",
"fffffffffffffffffffffqye00004%XX OO ooO ooXooO  .oooOooOOOOOO OO  .;8qiauq0fffffffffffffffffffff",
"ffffffffffffffffffffquw0009<@XOOO.O   XooooXo OooooOooOo   oooX  O O&50idiq9ffffffffffffffffffff",
"fffffffffffffffffffquw0009;OXooOO.+++++OXXXXOOO oooo O o O.++++O.   .#4qidiq0fffffffffffffffffff",
"ffffffffffffffffff0tr0009;OXO@*>36888874<;$+o ooOooX .#*:13666543>=#. #4waduq0ffffffffffffffffff",
"fffffffffffffffff0er0009>.#-3wupssddddssair7,*+oOXo#=28qrrrreqwwwq073;$%7raat0ffffffffffffffffff",
"fffffffffffffffffquq0003%<9usdddsddddddddddsiw6;@#,7qtyrwq0000000000008140udaq0fffffffffffffffff",
"ffffffffffffffff0uw000038uaddddddsddddsddddddaiw67wyieq0000000000000000000wadi00ffffffffffffffff",
"fffffffffffffff0rr00000radddsdsssaaassdddddddddsyqet00000000000000000000090tdaw0ffffffffffffffff",
"fffffffffffffffquq0000esdddsspuewqqwwwriasdddsdddy00000000000090000000000000rau00fffffffffffffff",
"ffffffffffffffftu00000pddddprq00000qq00qqtasdddddse00000000000000000000000000riq0fffffffffffffff",
"ffffffffffffff0iw0000rdddsr00000973<><27000rssddddiq00000000000000000000000000qq0fffffffffffffff",
"ffffffffffffffqu00000uddsrq000008-@OooO#;400eaddddst0000062<:::1370000000000000000ffffffffffffff",
"ffffffffffffffeu00000iddr00000wuyw83=+XoO+300wadddsaq004=+O    .O#;500000090000000ffffffffffffff",
"ffffffffffffffwy00000psp000000wryiair5*O +4qq0rsddsde00&   OO.. oX @>9000000009000ffffffffffffff",
"fffffffffffff0ry00000yae0000000000wripw>#1qiy00udddsiq0-  O  .O.++++@1009000000000ffffffffffffff",
"fffffffffffff0wu000000q0000000000009qtit70yaw00qadddde06+.OO+=<4788980000000000000ffffffffffffff",
"fffffffffffff0qu0000000000909000000000ey0tat0000rddddy00: +:7wyiasddaaairw00000000ffffffffffffff",
"fffffffffffff00rq0000000009000000000800qeat00000qadddaq07,6raddddddddddddaiq900000ffffffffffffff",
"ffffffffffffff0q00000000000086800009000yat0000005edddaq00raadddddddddddddddae00000ffffffffffffff",
"ffffffffffffff0900900000091%$@$*<8009qyie000000<+2adda00tddddddddddddddddddddt0000ffffffffffffff",
"ffffffffffffff00000000000>.     @10qeiuq0000002+ %qddrqidddddddaaiiiiadddddddde000ffffffffffffff",
"ffffffffffffff00000000900:$@@#%>5qeuie00000003#XO.1yyeaddddddateq000qqtpddddddiq0fffffffffffffff",
"ffffffffffffff0090000000008678qryiyeq00000008$XoO &0qadddddie000000q0000iddddddt0fffffffffffffff",
"fffffffffffffff0000000000000qwewq000000000009= .OO>qaddddat00000874425800idddddiqfffffffffffffff",
"fffffffffffffff0000000000000000000090000000004+ O;0iddddae000091&+....=00waddddde0ffffffffffffff",
"ffffffffffffff00000000000000000000000000900000- =8iddddae000004$    .$3000tdddddu0ffffffffffffff",
"ffffffffffffff0qr000000000000090000000000q00005=7yadddiw0000qee82:=:28rt00waddddiqffffffffffffff",
"ffffffffffffff0qar00000000000000000000680ue00009eddddaw0000waddaiuttuidy0eqaddddaqffffffffffffff",
"ffffffffffffff00iar000000000000000006>+,0yu00909tsddaw00000eddddddddddaqwawiddddaq0fffffffffffff",
"ffffffffffffff00udar000000000000982-@  %8qiq00000iaiw000000qidddddddddr0uawyddddde0fffffffffffff",
"ffffffffffffff00wadauq000061<<>-&#.    .10ry0000000000950000wyaadddaae0waaqrddddaw0fffffffffffff",
"ffffffffffffff000udddpy0008>#.     .    &90yq090000000;+:00000wertte000iaw0rddddaw0fffffffffffff",
"ffffffffffffff0000iddddprq007<*@.    .+%100qq000090004...-60000090000qiaw00tddddaqffffffffffffff",
"ffffffffffffff0000qidddddaurqq063<::>259we000000090009<$..@:46900000qipw000yddadpqffffffffffffff",
"fffffffffffffff00000isddssdsapuywwqqqwyiaae00000000000074,;*=>60000rpiq0000iddddu0ffffffffffffff",
"fffffffffffffff09000qysdddddddddsaaaassdddu00900000009000000000wwtiie000000adadde0ffffffffffffff",
"ffffffffffffffff00000qwisdddddddsdsdddddddi0000900000000000000etreq0000000qadddaqfffffffffffffff",
"ffffffffffffffff00000000ridddddddsddddddddr0000000000000000000000090000000tddddt0fffffffffffffff",
"ffffffffffffffff000000000qwupadddddddddspy00000000090000000000000000000970pdddpqffffffffffffffff",
"fffffffffffffffff000009800000wertyuiyyewq00005=;60000000000090000000004=<radadr0ffffffffffffffff",
"fffffffffffffffff000000>:7000000000000000007:@ O+;4800000000000000q94-@&9adddiqfffffffffffffffff",
"ffffffffffffffffff000004@@=<5800q0q00q0861=#oooo  O$;38800q0000084>&+X$7iddaaqffffffffffffffffff",
"fffffffffffffffffff000002+ .+$=:,<,<,:=%+oXXooooOooo .#&-><<<<>*$@OoX#4rdddae9ffffffffffffffffff",
"ffffffffffffffffffff00000<. .   ooooXXXXXoO O ooO OOOO  XXooOoXXXoXX#4tsddat0fffffffffffffffffff",
"ffffffffffffffffffff0000002# .o ooooooXoooOOoo O O  O O ooooooXOooO*7yssddyqffffffffffffffffffff",
"fffffffffffffffffffff0000005&   oooooooooooOOooX O O   OOoOXXOXXX+>0usdsay0fffffffffffffffffffff",
"fffffffffffffffffffffff000008<#oXooooooooooo Xo+@.      XOXOoXXO*4easddar0ffffffffffffffffffffff",
"ffffffffffffffffffffffff0009007>#OXXXoXoooooX#<884>;;=%@XXXXXO*3eisdddiw0fffffffffffffffffffffff",
"fffffffffffffffffffffffff00000007>&@OXXXXoXo$4yiaaaiiit01;-->6eissddsyq8ffffffffffffffffffffffff",
"fffffffffffffffffffffffffff000000q962>=%#@%10rrtwassdddssiuiasddddsuq0ffffffffffffffffffffffffff",
"fffffffffffffffffffffffffffff0000werewq088epsuwwtsssdddsddddddddauw00fffffffffffffffffffffffffff",
"fffffffffffffffffffffffffffffff0000qeree0esdddayidsdddssdddsaiyeq90fffffffffffffffffffffffffffff",
"ffffffffffffffffffffffffffffffffff0000000rddddaddddsddsssurwq0000fffffffffffffffffffffffffffffff",
"fffffffffffffffffffffffffffffffffffffff09qrutewessdddsitq00000ffffffffffffffffffffffffffffffffff",
"ffffffffffffffffffffffffffffffffffffffffff0000qqraaaueq0000fffffffffffffffffffffffffffffffffffff",
"fffffffffffffffffffffffffffffffffffffffffffq00ww0qqq0000ffffffffffffffffffffffffffffffffffffffff",
"fffffffffffffffffffffffffffffffffffffffffffff0q000000fffffffffffffffffffffffffffffffffffffffffff",
"fffffffffffffffffffffffffffffffffffffffffffffff000ffffffffffffffffffffffffffffffffffffffffffffff",
"ffffffffffffffffffffffffffffffffffffffffffffffffffffffffffffffffffffffffffffffffffffffffffffffff",
"ffffffffffffffffffffffffffffffffffffffffffffffffffffffffffffffffffffffffffffffffffffffffffffffff",
"ffffffffffffffffffffffffffffffffffffffffffffffffffffffffffffffffffffffffffffffffffffffffffffffff",
"ffffffffffffffffffffffffffffffffffffffffffffffffffffffffffffffffffffffffffffffffffffffffffffffff",
"ffffffffffffffffffffffffffffffffffffffffffffffffffffffffffffffffffffffffffffffffffffffffffffffff",
"ffffffffffffffffffffffffffffffffffffffffffffffffffffffffffffffffffffffffffffffffffffffffffffffff",
"ffffffffffffffffffffffffffffffffffffffffffffffffffffffffffffffffffffffffffffffffffffffffffffffff",
"ffffffffffffffffffffffffffffffffffffffffffffffffffffffffffffffffffffffffffffffffffffffffffffffff",
"ffffffffffffffffffffffffffffffffffffffffffffffffffffffffffffffffffffffffffffffffffffffffffffffff",
"ffffffffffffffffffffffffffffffffffffffffffffffffffffffffffffffffffffffffffffffffffffffffffffffff",
"ffffffffffffffffffffffffffffffffffffffffffffffffffffffffffffffffffffffffffffffffffffffffffffffff",
"ffffffffffffffffffffffffffffffffffffffffffffffffffffffffffffffffffffffffffffffffffffffffffffffff",
"ffffffffffffffffffffffffffffffffffffffffffffffffffffffffffffffffffffffffffffffffffffffffffffffff"
};
