/* XPM */
static char *bitcoin16[] = {
/* columns rows colors chars-per-pixel */
"16 16 96 2 ",
"   c #1E1A10",
".  c #221D10",
"X  c #292211",
"o  c #2B2410",
"O  c #302811",
"+  c #312811",
"@  c #332A11",
"#  c #392E11",
"$  c #3D3111",
"%  c #443713",
"&  c #483912",
"*  c #493A13",
"=  c #4E3D12",
"-  c #4F3F13",
";  c #524012",
":  c #554311",
">  c #564413",
",  c #5D4812",
"<  c #5E4A14",
"1  c #614B13",
"2  c #614C13",
"3  c #624D13",
"4  c #644D12",
"5  c #644E12",
"6  c #654F13",
"7  c #675013",
"8  c #695212",
"9  c #6B5312",
"0  c #6D5412",
"q  c #6F5612",
"w  c #6F5616",
"e  c #705613",
"r  c #725813",
"t  c #735813",
"y  c #775B12",
"u  c #765B13",
"i  c #775C12",
"p  c #735A15",
"a  c #715816",
"s  c #785C12",
"d  c #7B5E12",
"f  c #7B5F12",
"g  c #7C5F12",
"h  c #7A5F15",
"j  c #7A5F18",
"k  c #7D6013",
"l  c #7E6217",
"z  c #816312",
"x  c #826312",
"c  c #836413",
"v  c #836513",
"b  c #846613",
"n  c #866713",
"m  c #806315",
"M  c #806316",
"N  c #806317",
"B  c #856614",
"V  c #856716",
"C  c #846617",
"Z  c #876814",
"A  c #886814",
"S  c #896914",
"D  c #8A6A15",
"F  c #8B6B15",
"G  c #8C6B15",
"H  c #8D6C14",
"J  c #8C6C15",
"K  c #8D6C15",
"L  c #8D6C16",
"P  c #8D6D18",
"I  c #8D6E19",
"U  c #906F17",
"Y  c #906F18",
"T  c #937116",
"R  c #927017",
"E  c #957317",
"W  c #977417",
"Q  c #917018",
"!  c #927119",
"~  c #957318",
"^  c #95731A",
"/  c #967419",
"(  c #977519",
")  c #997518",
"_  c #987519",
"`  c #997618",
"'  c #997619",
"]  c #9B7719",
"[  c #9C7819",
"{  c #9D791A",
"}  c #A07B19",
"|  c #A17C1A",
" . c #A17D1A",
".. c #A27D1A",
"X. c #A37E1A",
"o. c None",
/* pixels */
"o.o.o.o.o.o.o.o.o.o.o.o.o.o.o.o.",
"o.o.o.o.o.o.o.o.o.o.o.o.o.o.o.o.",
"o.o.o.o.o.o.o.E W o.o.o.o.o.o.o.",
"o.o.o.o.Z 9 4 r 6 & 1 o.o.o.o.o.",
"o.o.o.B 3 * % O . + $ 2 R o.o.o.",
"o.o.o.F ! Q P ^ m f y i D o.o.o.",
"o.o.S K S k 7 U } ; - h n x o.o.",
"o.o.c z 5 t H 0 l ( / _  .J o.o.",
"o.o.S b d s y 0 C W M p | ..o.o.",
"o.o.G ` V > < A v 8 L E [ X.o.o.",
"o.o.o.Z Y ' ~ e q i g u _ o.o.o.",
"o.o.o.f : # o   X @ $ w { o.o.o.",
"o.o.o.o.o., = a I j N ] o.o.o.o.",
"o.o.o.o.o.o.o.T ) o.o.o.o.o.o.o.",
"o.o.o.o.o.o.o.o.o.o.o.o.o.o.o.o.",
"o.o.o.o.o.o.o.o.o.o.o.o.o.o.o.o."
};
