/* XPM */
static char *bitcoin32[] = {
/* columns rows colors chars-per-pixel */
"32 32 242 2 ",
"   c #0C0D0F",
".  c #0D0E0F",
"X  c #0E0E0F",
"o  c #0E0F0F",
"O  c #0C0D10",
"+  c #0D0D10",
"@  c #0D0E10",
"#  c #0E0E10",
"$  c #0F0F10",
"%  c #121110",
"&  c #131210",
"*  c #141310",
"=  c #161410",
"-  c #161510",
";  c #171510",
":  c #191710",
">  c #1A1710",
",  c #1B1810",
"<  c #1D1A10",
"1  c #1E1A10",
"2  c #201B10",
"3  c #201C10",
"4  c #221D10",
"5  c #272110",
"6  c #272111",
"7  c #282110",
"8  c #282210",
"9  c #2A2310",
"0  c #2C2411",
"q  c #2E2610",
"w  c #302710",
"e  c #322910",
"r  c #332A10",
"t  c #342A10",
"y  c #352B10",
"u  c #352B12",
"i  c #362C10",
"p  c #352C12",
"a  c #382E11",
"s  c #392E11",
"d  c #3A2F11",
"f  c #392E12",
"g  c #3B3012",
"h  c #3C3011",
"j  c #3F3211",
"k  c #3F3311",
"l  c #3F3312",
"z  c #403311",
"x  c #433611",
"c  c #443611",
"v  c #453711",
"b  c #463711",
"n  c #453712",
"m  c #473811",
"M  c #473911",
"N  c #473913",
"B  c #4A3B11",
"V  c #4B3B11",
"C  c #493A12",
"Z  c #4C3C11",
"A  c #4D3C11",
"S  c #4E3E11",
"D  c #4F3E11",
"F  c #4C3C12",
"G  c #4D3D12",
"H  c #4F3E12",
"J  c #503F11",
"K  c #524011",
"L  c #534111",
"P  c #544212",
"I  c #564312",
"U  c #564412",
"Y  c #574513",
"T  c #544314",
"R  c #564415",
"E  c #584411",
"W  c #584511",
"Q  c #594512",
"!  c #5C4811",
"~  c #5E4911",
"^  c #5F4A11",
"/  c #5B4815",
"(  c #634D11",
")  c #614C12",
"_  c #624C12",
"`  c #634D12",
"'  c #644D12",
"]  c #614C14",
"[  c #644E14",
"{  c #644E15",
"}  c #675012",
"|  c #685012",
" . c #685112",
".. c #695214",
"X. c #685216",
"o. c #695216",
"O. c #695316",
"+. c #6B5416",
"@. c #6F5614",
"#. c #6F5615",
"$. c #6F5716",
"%. c #715712",
"&. c #725712",
"*. c #705715",
"=. c #705716",
"-. c #725812",
";. c #735912",
":. c #745913",
">. c #755A12",
",. c #765B12",
"<. c #775C12",
"1. c #775C13",
"2. c #725914",
"3. c #735914",
"4. c #7A5E12",
"5. c #7B5E12",
"6. c #7C5F12",
"7. c #7D6012",
"8. c #7D6013",
"9. c #7E6012",
"0. c #7E6112",
"q. c #7F6112",
"w. c #7E6113",
"e. c #7F6113",
"r. c #7F6212",
"t. c #7E6114",
"y. c #7E6216",
"u. c #7F6318",
"i. c #806212",
"p. c #816312",
"a. c #826312",
"s. c #826313",
"d. c #826412",
"f. c #836412",
"g. c #836512",
"h. c #826413",
"j. c #836413",
"k. c #836513",
"l. c #846512",
"z. c #846513",
"x. c #856513",
"c. c #856613",
"v. c #866613",
"b. c #866713",
"n. c #876713",
"m. c #806214",
"M. c #836414",
"N. c #836515",
"B. c #856614",
"V. c #856714",
"C. c #866714",
"Z. c #876714",
"A. c #856616",
"S. c #876814",
"D. c #876815",
"F. c #866817",
"G. c #886814",
"H. c #886914",
"J. c #896914",
"K. c #886815",
"L. c #896915",
"P. c #8A6A14",
"I. c #8B6B14",
"U. c #8B6B15",
"Y. c #8A6A16",
"T. c #8C6B14",
"R. c #8C6B15",
"E. c #8C6C15",
"W. c #8D6C15",
"Q. c #8E6D15",
"!. c #8F6E15",
"~. c #8C6C16",
"^. c #8E6D16",
"/. c #8E6D17",
"(. c #8F6E16",
"). c #856718",
"_. c #876918",
"`. c #896A18",
"'. c #8A6B19",
"]. c #8F6E18",
"[. c #906F15",
"{. c #916F15",
"}. c #906E16",
"|. c #906F16",
" X c #916F16",
".X c #917017",
"XX c #927016",
"oX c #937117",
"OX c #947117",
"+X c #947217",
"@X c #957217",
"#X c #967317",
"$X c #977417",
"%X c #907019",
"&X c #977418",
"*X c #977518",
"=X c #96741A",
"-X c #987518",
";X c #997518",
":X c #997618",
">X c #997619",
",X c #9A7618",
"<X c #9B7718",
"1X c #9D7918",
"2X c #9C7819",
"3X c #9D7919",
"4X c #9F7A19",
"5X c #9F7B19",
"6X c #9E7A1A",
"7X c #A07B1A",
"8X c #A17C1A",
"9X c #A37D1A",
"0X c #A47E1A",
"qX c #A47F1B",
"wX c #A57F1B",
"eX c #A5801B",
"rX c #A6801B",
"tX c #A7811B",
"yX c #A7811C",
"uX c #A9821C",
"iX c #A9831C",
"pX c #AA831C",
"aX c #AB841C",
"sX c #AC851C",
"dX c #AC851D",
"fX c #AD851D",
"gX c #AD861D",
"hX c #AF871C",
"jX c #AE861D",
"kX c #AE871D",
"lX c #AF871D",
"zX c #AF881D",
"xX c #B0881D",
"cX c #B1881D",
"vX c #B0881E",
"bX c #B1881E",
"nX c #B1891E",
"mX c #B2891E",
"MX c #B28A1E",
"NX c #B38A1E",
"BX c #B48B1E",
"VX c None",
/* pixels */
"VXVXVXVXVXVXVXVXVXVXVXVXVXVXVXVXVXVXVXVXVXVXVXVXVXVXVXVXVXVXVXVX",
"VXVXVXVXVXVXVXVXVXVXVXVXVXVXVXVXVXVXVXVXVXVXVXVXVXVXVXVXVXVXVXVX",
"VXVXVXVXVXVXVXVXVXVXVXVXVXVXVXVXVXVXVXVXVXVXVXVXVXVXVXVXVXVXVXVX",
"VXVXVXVXVXVXVXVXVXVXVXVXVXVXVXVXVXVXVXVXVXVXVXVXVXVXVXVXVXVXVXVX",
"VXVXVXVXVXVXVXVXVXVXVXVXVXVXVX+XC.VXVXVXVXVXVXVXVXVXVXVXVXVXVXVX",
"VXVXVXVXVXVXVXVXVXVXVXVXP.Q.oX2X-X3XVXVXVXVXVXVXVXVXVXVXVXVXVXVX",
"VXVXVXVXVXVXVXVXVXVXQ.J.c.l.f.v.{.Y.:.m.R.[.VXVXVXVXVXVXVXVXVXVX",
"VXVXVXVXVXVXVXVX XP.;.L V W } %.` q > 4 k @. XXXVXVXVXVXVXVXVXVX",
"VXVXVXVXVXVXVXQ.h.K 1 o . o & > * @ . X # ; C /.$XVXVXVXVXVXVXVX",
"VXVXVXVXVXVXW.s.J f R o.O./ g , & 7 n U Q D s H &X@XVXVXVXVXVXVX",
"VXVXVXVXVXQ.S.w.).yXjXhXcXmXpX`...N.G.b.c.x.p.>.V.7XP.VXVXVXVXVX",
"VXVXVXVXVXQ.f.3XgX-XP.1.3.~.rXNX0Xv.a.q.6.r.f.f.a.E.U.VXVXVXVXVX",
"VXVXVXVXVXP.c.qX}.a.L.#.l t t.9XvXXX^ w 5 e E 9.p.p.d.VXVXVXVXVX",
"VXVXVXVXR.J.f.U.f.k.v.J.L.2.^.I.sX0XW 2 N { $.Y.J.a.p.VXVXVXVXVX",
"VXVXVXVXVXz.a.a.,.! ( 7.J.@XG.,.F.aXK.%XfXmXMXbXaX#Xd.VXVXVXVXVX",
"VXVXVXVXVXp.a.d.) h I D.Q.c.9.a p *XuXlX5XXXW.-XgXzXXXVXVXVXVXVX",
"VXVXVXVXVXf.p.a.p.k.n.c.f.d.0.i F eXpX!.9.A i _ #XnXqXVXVXVXVXVX",
"VXVXVXVXVXXXn.p.a.d.d.9. .8.H.,.>XiXT.b.6X'.u..X XaXaXVXVXVXVXVX",
"VXVXVXVXVXOX9XW.q.~ v q = P E.f.E.B.' w.,XrX0X$X&XrXfX|.VXVXVXVX",
"VXVXVXVXVXl.3XfX7XA.] G Y y.G.p.p.4.M D &.z.U.XXH.tXpXVXVXVXVXVX",
"VXVXVXVXVXp.k.#XpXnXxXgXxXkXW.d.f.d.p.4.e.P.I.g.H.fX8XVXVXVXVXVX",
"VXVXVXVXVXVXa.4.1.(.:X1X<X(.-.S ` 5.d.l.l.a.>.~ ].dXXXVXVXVXVXVX",
"VXVXVXVXVXVXd.5.c r b Z m y < $ * 8 j V B d 9 [ pX2XVXVXVXVXVXVX",
"VXVXVXVXVXVXVXf.<.z = O   + . - : % X   X 6 =.yX5XVXVXVXVXVXVXVX",
"VXVXVXVXVXVXVXVXf.i.| x 0 3 u *._.u.+.T X.=XtX;XVXVXVXVXVXVXVXVX",
"VXVXVXVXVXVXVXVXVXVXx.Z.M.t.6X9XgXBXlXwX4X-XVXVXVXVXVXVXVXVXVXVX",
"VXVXVXVXVXVXVXVXVXVXVXVXVXVXQ.(.2X2XQ.c.VXVXVXVXVXVXVXVXVXVXVXVX",
"VXVXVXVXVXVXVXVXVXVXVXVXVXVXVXVXa.VXVXVXVXVXVXVXVXVXVXVXVXVXVXVX",
"VXVXVXVXVXVXVXVXVXVXVXVXVXVXVXVXVXVXVXVXVXVXVXVXVXVXVXVXVXVXVXVX",
"VXVXVXVXVXVXVXVXVXVXVXVXVXVXVXVXVXVXVXVXVXVXVXVXVXVXVXVXVXVXVXVX",
"VXVXVXVXVXVXVXVXVXVXVXVXVXVXVXVXVXVXVXVXVXVXVXVXVXVXVXVXVXVXVXVX",
"VXVXVXVXVXVXVXVXVXVXVXVXVXVXVXVXVXVXVXVXVXVXVXVXVXVXVXVXVXVXVXVX"
};
