/* XPM */
static char *bitcoin22[] = {
/* columns rows colors chars-per-pixel */
"22 22 150 2 ",
"   c #131210",
".  c #161410",
"X  c #171510",
"o  c #1B1810",
"O  c #1E1A10",
"+  c #1F1B10",
"@  c #282210",
"#  c #2B2411",
"$  c #2D2612",
"%  c #312810",
"&  c #322910",
"*  c #332A10",
"=  c #352B11",
"-  c #372D10",
";  c #3A2F10",
":  c #382D12",
">  c #3C3011",
",  c #3F3211",
"<  c #3D3112",
"1  c #3C3113",
"2  c #403311",
"3  c #413411",
"4  c #433611",
"5  c #453711",
"6  c #463711",
"7  c #463811",
"8  c #4C3C11",
"9  c #4D3D13",
"0  c #4F3E12",
"q  c #4F3F13",
"w  c #4C3D14",
"e  c #4E3E14",
"r  c #524112",
"t  c #554311",
"y  c #544212",
"u  c #574411",
"i  c #504014",
"p  c #594511",
"a  c #5A4716",
"s  c #614B11",
"d  c #614B12",
"f  c #614B13",
"g  c #644D12",
"h  c #654E12",
"j  c #634E15",
"k  c #614D16",
"l  c #675012",
"z  c #665015",
"x  c #6B5313",
"c  c #6C5412",
"v  c #6D5413",
"b  c #6E5512",
"n  c #6E5513",
"m  c #6F5613",
"M  c #695215",
"N  c #6E5514",
"B  c #715712",
"V  c #705714",
"C  c #725813",
"Z  c #735913",
"A  c #745912",
"S  c #765B12",
"D  c #735A16",
"F  c #775C15",
"G  c #795D12",
"H  c #7B5E13",
"J  c #7B5F14",
"K  c #7B5F15",
"L  c #7C5F14",
"P  c #785E18",
"I  c #7E6113",
"U  c #7F6113",
"Y  c #7F6213",
"T  c #7E6114",
"R  c #7E6115",
"E  c #806212",
"W  c #816312",
"Q  c #826312",
"!  c #826313",
"~  c #826412",
"^  c #836412",
"/  c #836413",
"(  c #836513",
")  c #846512",
"_  c #846513",
"`  c #856613",
"'  c #866613",
"]  c #866713",
"[  c #836414",
"{  c #836514",
"}  c #836515",
"|  c #846515",
" . c #846614",
".. c #856615",
"X. c #876714",
"o. c #846616",
"O. c #886813",
"+. c #886814",
"@. c #896914",
"#. c #886915",
"$. c #8A6A14",
"%. c #8B6A14",
"&. c #8B6B14",
"*. c #8A6A15",
"=. c #886916",
"-. c #8C6B15",
";. c #8C6C15",
":. c #8F6D15",
">. c #8F6E15",
",. c #8B6C19",
"<. c #8C6C18",
"1. c #8C6C19",
"2. c #8D6D19",
"3. c #906E15",
"4. c #906F16",
"5. c #916F16",
"6. c #937117",
"7. c #947117",
"8. c #947217",
"9. c #957317",
"0. c #967317",
"q. c #917018",
"w. c #957318",
"e. c #977519",
"r. c #987518",
"t. c #997518",
"y. c #987619",
"u. c #9A7719",
"i. c #9B7719",
"p. c #9B781A",
"a. c #9D7919",
"s. c #9E7919",
"d. c #9E7A19",
"f. c #9F7B19",
"g. c #9F7B1A",
"h. c #9F7B1B",
"j. c #A17C1A",
"k. c #A07C1B",
"l. c #A37D1A",
"z. c #A37E1A",
"x. c #A47E1B",
"c. c #A47F1B",
"v. c #A57F1B",
"b. c #A5801B",
"n. c #A6801B",
"m. c #A7811B",
"M. c #A7811C",
"N. c #A8821B",
"B. c #AB841C",
"V. c None",
/* pixels */
"V.V.V.V.V.V.V.V.V.V.V.V.V.V.V.V.V.V.V.V.V.V.",
"V.V.V.V.V.V.V.V.V.V.V.V.V.V.V.V.V.V.V.V.V.V.",
"V.V.V.V.V.V.V.V.V.V.V.V.V.V.V.V.V.V.V.V.V.V.",
"V.V.V.V.V.V.V.V.V.5.r.9.V.V.V.V.V.V.V.V.V.V.",
"V.V.V.V.V.V.V.+.Y ! +.*.v n ..V.V.V.V.V.V.V.",
"V.V.V.V.V.-.m > @ & 3 %   X = N 6.V.V.V.V.V.",
"V.V.V.V.&.B 9 a k i # + < 0 8 6 K t.V.V.V.V.",
"V.V.V.V.X.q.k.a.u.m.h.o.` ` ) W U 6.V.V.V.V.",
"V.V.V.-.$.s.@.T y f j.m.Z 2 3 g E ^ / V.V.V.",
"V.V.V.+._ _ G Y  .} @.c.R q P 1.r.@.W V.V.V.",
"V.V.V.Q ~ S 8 x -.O.u j l.N.d.w.b.m.%.V.V.V.",
"V.V.V.] ^ E E ' W ( p D n.3.V r | B.f.V.V.V.",
"V.V.V.>.0.` b t ; C ' 8.L { g.p.0.b.x.V.V.V.",
"V.V.V._ r.v.<.M z =.) ~ h d [ :.;.z.j.V.V.V.",
"V.V.V.V.~ #.a.m.m.8.c A Q Q ) H J n.V.V.V.V.",
"V.V.V.V.^ l 2 7 6 & X O - 5 , 4 ,.j.V.V.V.V.",
"V.V.V.V.V.E s * o . : w 1 $ e 2.j.V.V.V.V.V.",
"V.V.V.V.V.V.V.I C F y.B.M.e.i.V.V.V.V.V.V.V.",
"V.V.V.V.V.V.V.V.V.V.;.7.4.V.V.V.V.V.V.V.V.V.",
"V.V.V.V.V.V.V.V.V.V.V.V.V.V.V.V.V.V.V.V.V.V.",
"V.V.V.V.V.V.V.V.V.V.V.V.V.V.V.V.V.V.V.V.V.V.",
"V.V.V.V.V.V.V.V.V.V.V.V.V.V.V.V.V.V.V.V.V.V."
};
