/* XPM */
static char *bitcoin128[] = {
/* columns rows colors chars-per-pixel */
"128 128 43 1 ",
"  c #0F0F0F",
". c #100F0F",
"X c #12110F",
"o c #0F0F10",
"O c #0F1010",
"+ c #101010",
"@ c #191610",
"# c #1D1910",
"$ c #221D10",
"% c #272110",
"& c #2B2410",
"* c #302710",
"= c #332A11",
"- c #392E11",
"; c #3D3111",
": c #433611",
"> c #473811",
", c #4B3C11",
"< c #503F11",
"1 c #554211",
"2 c #594612",
"3 c #5E4912",
"4 c #634D12",
"5 c #675012",
"6 c #6C5312",
"7 c #715712",
"8 c #745A12",
"9 c #7A5E12",
"0 c #7E6112",
"q c #826312",
"w c #876814",
"e c #8B6B15",
"r c #906F16",
"t c #947217",
"y c #977418",
"u c #9A7618",
"i c #9D7919",
"p c #A27D1A",
"a c #A6801B",
"s c #AC851D",
"d c #AF881D",
"f c #B1891E",
"g c None",
/* pixels */
"gggggggggggggggggggggggggggggggggggggggggggggggggggggggggggggggggggggggggggggggggggggggggggggggggggggggggggggggggggggggggggggggg",
"gggggggggggggggggggggggggggggggggggggggggggggggggggggggggggggggggggggggggggggggggggggggggggggggggggggggggggggggggggggggggggggggg",
"gggggggggggggggggggggggggggggggggggggggggggggggggggggggggggggggggggggggggggggggggggggggggggggggggggggggggggggggggggggggggggggggg",
"gggggggggggggggggggggggggggggggggggggggggggggggggggggggggggggggggggggggggggggggggggggggggggggggggggggggggggggggggggggggggggggggg",
"gggggggggggggggggggggggggggggggggggggggggggggggggggggggggggggggggggggggggggggggggggggggggggggggggggggggggggggggggggggggggggggggg",
"gggggggggggggggggggggggggggggggggggggggggggggggggggggggggggggggggggggggggggggggggggggggggggggggggggggggggggggggggggggggggggggggg",
"gggggggggggggggggggggggggggggggggggggggggggggggggggggggggggggggggggggggggggggggggggggggggggggggggggggggggggggggggggggggggggggggg",
"gggggggggggggggggggggggggggggggggggggggggggggggggggggggggggggggggggggggggggggggggggggggggggggggggggggggggggggggggggggggggggggggg",
"gggggggggggggggggggggggggggggggggggggggggggggggggggggggggggggggggggggggggggggggggggggggggggggggggggggggggggggggggggggggggggggggg",
"gggggggggggggggggggggggggggggggggggggggggggggggggggggggggggggggggggggggggggggggggggggggggggggggggggggggggggggggggggggggggggggggg",
"gggggggggggggggggggggggggggggggggggggggggggggggggggggggggggggggggggggggggggggggggggggggggggggggggggggggggggggggggggggggggggggggg",
"gggggggggggggggggggggggggggggggggggggggggggggggggggggggggggggggggggggggggggggggggggggggggggggggggggggggggggggggggggggggggggggggg",
"gggggggggggggggggggggggggggggggggggggggggggggggggggggggggggggggggggggggggggggggggggggggggggggggggggggggggggggggggggggggggggggggg",
"gggggggggggggggggggggggggggggggggggggggggggggggggggggggggggggggggggggggggggggggggggggggggggggggggggggggggggggggggggggggggggggggg",
"gggggggggggggggggggggggggggggggggggggggggggggggggggggggggggggggggggggggggggggggggggggggggggggggggggggggggggggggggggggggggggggggg",
"gggggggggggggggggggggggggggggggggggggggggggggggggggggggggggggggggggggggggggggggggggggggggggggggggggggggggggggggggggggggggggggggg",
"gggggggggggggggggggggggggggggggggggggggggggggggggggggggggggggggggggggggggggggggggggggggggggggggggggggggggggggggggggggggggggggggg",
"gggggggggggggggggggggggggggggggggggggggggggggggggggggggggggggggqqggggggggggggggggggggggggggggggggggggggggggggggggggggggggggggggg",
"gggggggggggggggggggggggggggggggggggggggggggggggggggggggggqqqwwewwwqqgggggggggggggggggggggggggggggggggggggggggggggggggggggggggggg",
"ggggggggggggggggggggggggggggggggggggggggggggggggggggggqwwtiiapauwwwwqggggggggggggggggggggggggggggggggggggggggggggggggggggggggggg",
"ggggggggggggggggggggggggggggggggggggggggggggggggggggqwrpdfffffaqtewewqqggggggggggggggggggggggggggggggggggggggggggggggggggggggggg",
"gggggggggggggggggggggggggggggggggggggggggggggggggqqwtpapuupaffftwwweaiwqgggggggggggggggggggggggggggggggggggggggggggggggggggggggg",
"gggggggggggggggggggggggggggggggggggggggggggggggqwetuuewqqqqwpffayupsddatwqgggggggggggggggggggggggggggggggggggggggggggggggggggggg",
"ggggggggggggggggggggggggggggggggggggggggggggqwwttrwwqqqqqqqqqtttafffffffrqqqqqqggggggggggggggggggggggggggggggggggggggggggggggggg",
"ggggggggggggggggggggggggggggggggggggggggggqeyutewqqqqqqqqqqq0qqqwpsdffsarqqwreqqqqgggggggggggggggggggggggggggggggggggggggggggggg",
"ggggggggggggggggggggggggggggggggggggggggweuiywq0qqqqqqq0qqqqqqqqqwwrrrewqqqepppurwwq9ggggggggggggggggggggggggggggggggggggggggggg",
"ggggggggggggggggggggggggggggggggggggggwriptwqqqqqqqqqqqqq00qqqqqqqwqqqqwqqqwwertiiptwwqqgggggggggggggggggggggggggggggggggggggggg",
"ggggggggggggggggggggggggggggggggggggqeiirwqqqqqqqq0qqq0qqqqqqqqqewqqqqq8621368qqqweuppewqqgggggggggggggggggggggggggggggggggggggg",
"gggggggggggggggggggggggggggggggggggwtaywqqqqqqqqqqqqqqqqqqqqq0qwueqqq6:$XX.X@%-170wqwtpptwqqgggggggggggggggggggggggggggggggggggg",
"gggggggggggggggggggggggggggggggggqrppeqqq0qqqq098890qqqqqwqqqqqqqww9<#  ....   .@*18qwwuaprwqggggggggggggggggggggggggggggggggggg",
"ggggggggggggggggggggggggggggggggwtatwqqqqqq05>&$#$%&;,3689qwqqwqwq8:X ...X.......o+$<9qqwispeqqggggggggggggggggggggggggggggggggg",
"ggggggggggggggggggggggggggggggqwipeqqq0qw02=X .      XXX$&;,24753,%.  ....... ..++.oX%10wqtsduwqgggggggggggggggggggggggggggggggg",
"gggggggggggggggggggggggggggggqwpiwqqqqqq4*++++o+........    ++#@X...........    ......X=50qeafaeqqgggggggggggggggggggggggggggggg",
"ggggggggggggggggggggggggggggqwptwqqq0w8:@oo++ o........ ..    . ............    ....... #,00wadstqqggggggggggggggggggggggggggggg",
"gggggggggggggggggggggggggggqwptq0q0qq5%ooo+o+.+...  ..X... .+ o+............ .  ......    -8qwidduqqgggggggggggggggggggggggggggg",
"ggggggggggggggggggggggggggqeptqqqqq01#oOooo+o.+..   .. .....o.++...........  .  ......X.   &40qaffuw0ggggggggggggggggggggggggggg",
"gggggggggggggggggggggggggqwptqqqqq9:X ooOooooooo        ..+o.++ .X  ........    ...    X  X @10waffuw0gggggggggggggggggggggggggg",
"ggggggggggggggggggggggggqqiuqqqqq9:+ ooo+@%*;,,,,,,,;*$@. .++..+X X ......X$&-:11>1,;;&#XX   @30eaffyqqggggggggggggggggggggggggg",
"ggggggggggggggggggggggggqtiqq0qqq>X o+%:38wtupppppputeq71;$+o.++ X  . .#-16890wwww0qqq0841*#X #4wtdfdrqqgggggggggggggggggggggggg",
"gggggggggggggggggggggggqtiwqqqq0,XX$:5wpaddfffffffdffssaie83;$+o    #-280etuatttreeereeqqq081;@$6qufdawwqggggggggggggggggggggggg",
"ggggggggggggggggggggggqwpeqq0qq3#&20tsdffffdffffdffffdffffauw92&X $160eyautrwqqqqqqqqqwqqqqqqq7>1qwaffiqqggggggggggggggggggggggg",
"ggggggggggggggggggggggqutqqqqq0>1qtsdfdfffddfdfffffdfffffffdsie01180wuauew0q0qqqq0qqqwqqq0qqqqqq9qqtffdrqqgggggggggggggggggggggg",
"gggggggggggggggggggggqtpwqqqqq00epfffffffffdfffffdfdffffffffffdu00wyaae0qqqqqqqqqqqqqq0qqqqqqqqqqqqwaffawqqggggggggggggggggggggg",
"gggggggggggggggggggggwarqqqqqqwufffffffffffddasdddffffffffdfdfffa0qytwq0q0qqqqqqqqqqq0qqqqqqqqqqq0qqrdffeqqggggggggggggggggggggg",
"ggggggggggggggggggggqtaq0qqqqqufffffdffspurewwwwertuadfffffffffffawq0qq0q0qqqq0q0qq0qqqqqqqqqqqqqqqqqepfpwqggggggggggggggggggggg",
"ggggggggggggggggggggearqqqqq0essffffdauewqqq0qqwqqqqweiaffffffffffaq0qqqqqqq0qqqqqqqqqqq0qqqqqqqqqqqqqwidwqqgggggggggggggggggggg",
"gggggggggggggggggggqtaw0qqqqqafffffdteqqqqqqqwqqqqqqqqqwysfffffdfsftqqqqq0qqwqqqqq0qqqqqqqqqqqqqqq0qqqqwitqqgggggggggggggggggggg",
"gggggggggggggggggggqptqq0qqqrfffffaeqqqqqqq0951>::,28qqqqqpfddfffffawq0q0qwq0qwqqqwqqqw0qqqqqq0qqqqqqqqqwwwqgggggggggggggggggggg",
"gggggggggggggggggggwaeqqqqqqyffffdwqqqqqqqq8-X     X#;40qqqtdffdffffu0qqqq0q09642113589qqqqq0qqqq0q0qqqqqqqqqggggggggggggggggggg",
"ggggggggggggggggggqeawqqqqqqpfffaeqqqqqqqeew62>=X     X=7qqqtsffffffseqqqq93=$#X X XX#%:50qqqqqqqqqqqqqq0qqqqggggggggggggggggggg",
"ggggggggggggggggggqtpqqqqqqqadfdrqqqqqqqtsssaitq6:# ..X ,qqqqyfffffsfuqqq7*        X    X=5qqqqqqqqqqq0qqqqqqggggggggggggggggggg",
"gggggggggggggggggg0tpqqqqqqqiffiqqqqqqqqwwrtisssie6*X..#6qeqqqpffffffaqqq1      X   X   X X10qqqqqqqqqqq0qqqqggggggggggggggggggg",
"ggggggggggggggggggqtpq0wq0qqyfseqqqqqqqqqqq0qweussiq>X@3qtstqqwaffffffr0q4X. ...        X  .>0qq0qqqqqqqqqqqqggggggggggggggggggg",
"ggggggggggggggggggqtpqqqqqqqwueqqqq0q0qqqqqqqqq0wusaw440waftqqqtffffffaq00;  ...  #&:,11111140qq0qqqqqqqqqqqqggggggggggggggggggg",
"ggggggggggggggggggqepw0qq0qqqqqqq0qqqqqqqqqqqqqqqqeapwqwpfuqqqqqafffffse0q6#...X&180weyiiaiuyreqqqqqqqq0qqq0qggggggggggggggggggg",
"ggggggggggggggggggqwpe0qqqqqqq0qqqqq0q0qqqq0qqq0qqqepwwifpqqqqq0wssffffuqq0: .*20etpafffdfdffdsaitwqqqqqq0qqqggggggggggggggggggg",
"ggggggggggggggggggqqueqqqqqqq0qqqqq00qqqqqqqqqqq0qqqqwuspqqqqqq0qifffffawqq8-29rpsfffffsfffffsffsfsuwqqqqqqqqggggggggggggggggggg",
"ggggggggggggggggggqqewqqqqqqqqqqqqqqqwqqqqqqq0qqqqqqqidpqqqqqqqqqrsffffswq0q0raffffffsffffffffffffffaeqqq0qqqggggggggggggggggggg",
"ggggggggggggggggggqwqqqqqqqqqqqqqqqq8642460qqqqqqqqwpfiqqqqqqqq013iffffswqqwufffffffffffffffffffsffsfstqqqqqqggggggggggggggggggg",
"ggggggggggggggggggqqq0qqqqqqqqqqqq8:$XX.X@&18qqqqqepatqqqqqqqq0; %wsfffawqwafffsffffffffffffffffffffffstq0qqqggggggggggggggggggg",
"gggggggggggggggggggqqqqqq0qqqqqqq8*     X  X>0qqeuapeqqqqqqqq0,X X2uffftqrafffffffffffssssassfffffffffffrqqqqggggggggggggggggggg",
"gggggggggggggggggggqqqqqqqqqqqqqq2X     XX*18qwyaatqqqqqqqqqq<X   *0afiwtsfffsffffsapyewqwwerpsfffffffffpwqqqggggggggggggggggggg",
"gggggggggggggggggggqqqqqqqq0q0qqq81>-=->150weiaauwqqqqqqqqqq2@ ..  1wrwufffffffffarwqqqqqqqqqqepfffffffffuqqgggggggggggggggggggg",
"gggggggggggggggggggqq0qqqqqq0qqqqqqqqqqwetuiaitqqqqqqqqqqqq9% ..   *0wufffffffsaeqqqqqqqqqqqqqqqtffffffffawqgggggggggggggggggggg",
"ggggggggggggggggggggqqqq0qq0qqqqqqqqqweruteeqqq0qqqqqqqqqqq0-.....X1quffsffffatwq0qqqq00988890qqqusdddffffuqqggggggggggggggggggg",
"ggggggggggggggggggggqqqqqqqqqqqqqqqqqqqqqqqqqqqqqqq0qqqqqqqq6@....:0rsffffffarqqqqqq05>=$$#$$-6qqqadddffffawqggggggggggggggggggg",
"gggggggggggggggggggqqqqqqqqqqqqqqqqqqqqqqqqqqqqqqqqqqqqqqqqqq;.. ;9rsffffffiwqqqqqq6=@        3qq0edfffffffrqggggggggggggggggggg",
"gggggggggggggggggggqqqqqq0qqqq0q0qqqqqqqqqqqqqqqqqqq0qqqqqqqq6@ *8eaffffffuwqqq0q0q5%X      $20wwqquffffffduqggggggggggggggggggg",
"gggggggggggggggggggqqueqqqqqqqqqqqqq0qqq0qq0qq0qq0qqqqqeqqqqqq>%6waffsffduwqqq0qqeew94,=$&-17qtyqqqedffffffpqqgggggggggggggggggg",
"gggggggggggggggggggqqpaqqqqqqqqqqqqqqqqqqqqqqqqqqqqqqqqpeq0qqq97qaffffffuq0qq0qwusssauew00weradywqwwsffffffawqgggggggggggggggggg",
"gggggggggggggggggggqqpfuqqqqqqqqqq0qqqqqq0qqqqqqqq8:6qqauqqqqqqqrsfffffuqqqqqqqrffffdddsssasffseqtuqafdfffddwqgggggggggggggggggg",
"gggggggggggggggggggqqtssuqqqqqqqqqqqqqqqqqqqqqq081$ ;qquaqqqq00qrsffffuqqqqqqqqtfffdddffffffdda9qsawuddffdffwqgggggggggggggggggg",
"gggggggggggggggggggq0esdfuqqqqqqqqqqqqqqqqqqq06>$X  @6qwsrqqqqqqqusdsiwqqqqqqqqwaffffffffdfffaeqtdswuddffffftqgggggggggggggggggg",
"gggggggggggggggggggqqwpffspeqqqqqqq009098642:%X   X  :qqypqqqqqqqqwreq0qqqqqq0qqwadfffffdfffae0qafaqrdffffddtqgggggggggggggggggg",
"gggggggggggggggggggqqqrdfffatwqqqqq5=&%%#@X X .. ..  #8qepeqqqqqqqqqqqqq9,30qqqqqwtassddddauw00uddeqedfffffdt0gggggggggggggggggg",
"gggggggggggggggggggq0qwiffffsprqqq002*X  .. ....  X   <qqruqqqqqqqqq0qq9;XX,0qqqqq0wweerrewqqqrddtqqedffddddeqgggggggggggggggggg",
"gggggggggggggggggggq0qqeaffdfffprwqqqq5>%X.         @=6qqwewqqq0qqqqqqq4X  X;8qq0qqq0qqqqqqqqesdtqqqedffffdswqgggggggggggggggggg",
"gggggggggggggggggggqqqqqepffffffdaueqqqq04,-%####%=<60qqqqqqqqqqqq0qq0q7=X  X%18qqqqqqq0qqqqrastqqqqrdfffddaqqgggggggggggggggggg",
"gggggggggggggggggggqq0q0qeaffffffddsaireqqqq977889qqweipwqqqqqqqqqqqqqqq03=#@  $-159qqqqqqqtaatqqqqqtdffddfaqqgggggggggggggggggg",
"ggggggggggggggggggggqqqqqqepffffdfffdffsaiteewwweetpsffft0qqqqqq0qqqqqqqqq0851,;-;39q00qqeadaeqqqqqqidfffffuqggggggggggggggggggg",
"ggggggggggggggggggggqqqqq0qwusfffffdfffffffdssasdddffdffpwqqqqqqqqqqqqqqqqqqwqqqqqqqq0wtaaarqqq0qqqwpffdfffwqggggggggggggggggggg",
"gggggggggggggggggggg0qqqqqqqqtafffffffffffffffffffdfffffawqqqqq9qqqqqqq0qqqqqqqq0wetayaayr00q0qqq0qwdfdfffpqqggggggggggggggggggg",
"gggggggggggggggggggggqqqqqqqqqwusffffffdfffffdffffffffdfpwq9qqqqqqqqqqqqqqqqqqqqqqweee0qq0qq0qqqqqqrdfffffrqgggggggggggggggggggg",
"gggggggggggggggggggggqqqqq0qqqqqwysffffdfddffdffffffffffuqqqqqqqqq0qqqqqqq0q0qqqqqq0qqqqqqq0qqqqqqqifdfffpwqgggggggggggggggggggg",
"ggggggggggggggggggggggqqqqq0qq0qqqwrpsddfdffddddddffffsuwqqqqqqqqqqqqq0qqqqqqqw0qqqq0qqqq0qq0qq09qwdffffftqggggggggggggggggggggg",
"ggggggggggggggggggggggqqqqqqqqqwqqq0qwruppsssddddsapitwqqwqqq728qqqq0qqqqqqq0q00q0qqqqqqqqqqqq01:9udddffpwqggggggggggggggggggggg",
"gggggggggggggggggggggggqqqqqq095qqqqqqqqqqqwwwrrewwqqqqqqqw91$.$170qqqqqqqqqqq0wqqqqqqq0qq0004=@2wdfddfdeqgggggggggggggggggggggg",
"gggggggggggggggggggggggqqqqqqq9==40qqqqqqqqqqqqq0qqqqqqqq94*X... #:50qqqqqqqq00wqqqqqqqqqq03=@X;qpffddduqqgggggggggggggggggggggg",
"ggggggggggggggggggggggggqqqqqqq3XX&,49qqqwqqqqqqqqqqwq95>*XoOO+O   X&;48000q0w00q0qq00q94;*X  -9tfffdfawqggggggggggggggggggggggg",
"gggggggggggggggggggggggggqqqqqqq1X  X%=14689099998741-%@oo++OOOO      X$-1468999099851;&@    *8edffffawqgggggggggggggggggggggggg",
"gggggggggggggggggggggggggq0qqqqq0:      X@$%%%%%%$@@oooo+++o+oOO XX ...   .@$%%%%%%#@   ..  &6waffffdeqggggggggggggggggggggggggg",
"ggggggggggggggggggggggggggqqqq0qq9;     X       oooOOooOo+o+o++O    .... . .           .. .*7rafffddtqgggggggggggggggggggggggggg",
"gggggggggggggggggggggggggggqqqqqqq9>X    X  X X OOOOOOO++o+OOOOO X............  X X   .  X;9rafffffuwggggggggggggggggggggggggggg",
"ggggggggggggggggggggggggggggqqqq0qqq2$          OOOOOO+Oo+o++OOOX   .......... XX    X  #20rsffffdyqgggggggggggggggggggggggggggg",
"gggggggggggggggggggggggggggggqqqqqqqq7=X       XOOOO+OOOOOo+OOOo    ... .....XX   X   X=6wasffffdtqggggggggggggggggggggggggggggg",
"ggggggggggggggggggggggggggggggqqqqqqqq02*X      OO+OOoOOO+OOOo+@#@  .    .....      X%29tassfffaeqgggggggggggggggggggggggggggggg",
"gggggggggggggggggggggggggggggggqqwqqqqqw91%+ooOooOOOOOOOOOOO+*2676,=***%#@oooooooo+$<9rpdfdfffiwqggggggggggggggggggggggggggggggg",
"gggggggggggggggggggggggggggggggggq0q0qq0qq92&@oooOOoOOOOooo+:0psdaitreew84>$@@@@#*19ridfffffdyqqgggggggggggggggggggggggggggggggg",
"ggggggggggggggggggggggggggggggggggqqqqqqqqqq94>*#@oooooooo$,qtuuidfddffsssiw76679ripddffffdieqqggggggggggggggggggggggggggggggggg",
"gggggggggggggggggggggggggggggggggggg0qqqqq0qqww984<;-&$$*19rueuu0idddfffffdddaasddfffdfffprqqggggggggggggggggggggggggggggggggggg",
"ggggggggggggggggggggggggggggggggggggggqqqq0qerrrrwqq9988wisdiweeesfdffffffffdffdfffffffirw0qgggggggggggggggggggggggggggggggggggg",
"gggggggggggggggggggggggggggggggggggggggg0qqq0weruiytywwrdfdfdpueifdffffffsffffffffddpuewqqgggggggggggggggggggggggggggggggggggggg",
"gggggggggggggggggggggggggggggggggggggggggggwqqqqqwwwewqyfffffffpdfdfsffffffffddpiyrwq0qqgggggggggggggggggggggggggggggggggggggggg",
"ggggggggggggggggggggggggggggggggggggggggggggggqqqqqqqqqyffffffdffdffffffffssireqqqq0qqgggggggggggggggggggggggggggggggggggggggggg",
"ggggggggggggggggggggggggggggggggggggggggggggggggggqqqqqwuiiuyreyddfffdffsptwqqqqqqqqgggggggggggggggggggggggggggggggggggggggggggg",
"gggggggggggggggggggggggggggggggggggggggggggggggggggggggqqqqwqqqquffdffaurqqqqqqqqggggggggggggggggggggggggggggggggggggggggggggggg",
"ggggggggggggggggggggggggggggggggggggggggggggggggggggggggqqqqqwuwwuppptw0qqqqqqgggggggggggggggggggggggggggggggggggggggggggggggggg",
"ggggggggggggggggggggggggggggggggggggggggggggggggggggggggggwq0wye00wwqq0wqqqggggggggggggggggggggggggggggggggggggggggggggggggggggg",
"gggggggggggggggggggggggggggggggggggggggggggggggggggggggggggqqqq0qqqqqw0ggggggggggggggggggggggggggggggggggggggggggggggggggggggggg",
"gggggggggggggggggggggggggggggggggggggggggggggggggggggggggggggqqqqqqqqggggggggggggggggggggggggggggggggggggggggggggggggggggggggggg",
"ggggggggggggggggggggggggggggggggggggggggggggggggggggggggggggggggqggggggggggggggggggggggggggggggggggggggggggggggggggggggggggggggg",
"gggggggggggggggggggggggggggggggggggggggggggggggggggggggggggggggggggggggggggggggggggggggggggggggggggggggggggggggggggggggggggggggg",
"gggggggggggggggggggggggggggggggggggggggggggggggggggggggggggggggggggggggggggggggggggggggggggggggggggggggggggggggggggggggggggggggg",
"gggggggggggggggggggggggggggggggggggggggggggggggggggggggggggggggggggggggggggggggggggggggggggggggggggggggggggggggggggggggggggggggg",
"gggggggggggggggggggggggggggggggggggggggggggggggggggggggggggggggggggggggggggggggggggggggggggggggggggggggggggggggggggggggggggggggg",
"gggggggggggggggggggggggggggggggggggggggggggggggggggggggggggggggggggggggggggggggggggggggggggggggggggggggggggggggggggggggggggggggg",
"gggggggggggggggggggggggggggggggggggggggggggggggggggggggggggggggggggggggggggggggggggggggggggggggggggggggggggggggggggggggggggggggg",
"gggggggggggggggggggggggggggggggggggggggggggggggggggggggggggggggggggggggggggggggggggggggggggggggggggggggggggggggggggggggggggggggg",
"gggggggggggggggggggggggggggggggggggggggggggggggggggggggggggggggggggggggggggggggggggggggggggggggggggggggggggggggggggggggggggggggg",
"gggggggggggggggggggggggggggggggggggggggggggggggggggggggggggggggggggggggggggggggggggggggggggggggggggggggggggggggggggggggggggggggg",
"gggggggggggggggggggggggggggggggggggggggggggggggggggggggggggggggggggggggggggggggggggggggggggggggggggggggggggggggggggggggggggggggg",
"gggggggggggggggggggggggggggggggggggggggggggggggggggggggggggggggggggggggggggggggggggggggggggggggggggggggggggggggggggggggggggggggg",
"gggggggggggggggggggggggggggggggggggggggggggggggggggggggggggggggggggggggggggggggggggggggggggggggggggggggggggggggggggggggggggggggg",
"gggggggggggggggggggggggggggggggggggggggggggggggggggggggggggggggggggggggggggggggggggggggggggggggggggggggggggggggggggggggggggggggg",
"gggggggggggggggggggggggggggggggggggggggggggggggggggggggggggggggggggggggggggggggggggggggggggggggggggggggggggggggggggggggggggggggg",
"gggggggggggggggggggggggggggggggggggggggggggggggggggggggggggggggggggggggggggggggggggggggggggggggggggggggggggggggggggggggggggggggg",
"gggggggggggggggggggggggggggggggggggggggggggggggggggggggggggggggggggggggggggggggggggggggggggggggggggggggggggggggggggggggggggggggg",
"gggggggggggggggggggggggggggggggggggggggggggggggggggggggggggggggggggggggggggggggggggggggggggggggggggggggggggggggggggggggggggggggg"
};
