/* XPM */
static char *bitcoin64[] = {
/* columns rows colors chars-per-pixel */
"64 64 45 1 ",
"  c #0E0F0F",
". c #11110F",
"X c #0E0F10",
"o c #0F1010",
"O c #121110",
"+ c #191710",
"@ c #1D1910",
"# c #221D10",
"$ c #262010",
"% c #2C2510",
"& c #302710",
"* c #342A11",
"= c #3A2F11",
"- c #3D3111",
"; c #433511",
": c #473911",
"> c #4B3B11",
", c #513F11",
"< c #544212",
"1 c #5A4612",
"2 c #5E4912",
"3 c #634D12",
"4 c #675012",
"5 c #6C5312",
"6 c #715712",
"7 c #745A12",
"8 c #7A5E12",
"9 c #7E6113",
"0 c #826412",
"q c #876813",
"w c #8B6B15",
"e c #836618",
"r c #866818",
"t c #896A18",
"y c #906F16",
"u c #947217",
"i c #967418",
"p c #997618",
"a c #9E7A19",
"s c #A27D1A",
"d c #A7811B",
"f c #AC851D",
"g c #AF881D",
"h c #B1891E",
"j c None",
/* pixels */
"jjjjjjjjjjjjjjjjjjjjjjjjjjjjjjjjjjjjjjjjjjjjjjjjjjjjjjjjjjjjjjjj",
"jjjjjjjjjjjjjjjjjjjjjjjjjjjjjjjjjjjjjjjjjjjjjjjjjjjjjjjjjjjjjjjj",
"jjjjjjjjjjjjjjjjjjjjjjjjjjjjjjjjjjjjjjjjjjjjjjjjjjjjjjjjjjjjjjjj",
"jjjjjjjjjjjjjjjjjjjjjjjjjjjjjjjjjjjjjjjjjjjjjjjjjjjjjjjjjjjjjjjj",
"jjjjjjjjjjjjjjjjjjjjjjjjjjjjjjjjjjjjjjjjjjjjjjjjjjjjjjjjjjjjjjjj",
"jjjjjjjjjjjjjjjjjjjjjjjjjjjjjjjjjjjjjjjjjjjjjjjjjjjjjjjjjjjjjjjj",
"jjjjjjjjjjjjjjjjjjjjjjjjjjjjjjjjjjjjjjjjjjjjjjjjjjjjjjjjjjjjjjjj",
"jjjjjjjjjjjjjjjjjjjjjjjjjjjjjjjjjjjjjjjjjjjjjjjjjjjjjjjjjjjjjjjj",
"jjjjjjjjjjjjjjjjjjjjjjjjjjjjjjjjjjjjjjjjjjjjjjjjjjjjjjjjjjjjjjjj",
"jjjjjjjjjjjjjjjjjjjjjjjjjjjjyipuqqjjjjjjjjjjjjjjjjjjjjjjjjjjjjjj",
"jjjjjjjjjjjjjjjjjjjjjjjjjqupadhawqiqjjjjjjjjjjjjjjjjjjjjjjjjjjjj",
"jjjjjjjjjjjjjjjjjjjjjjjqwwwq0qpasfhsq0jjjjjjjjjjjjjjjjjjjjjjjjjj",
"jjjjjjjjjjjjjjjjjjjjwyywq0000090waapwquyqqjjjjjjjjjjjjjjjjjjjjjj",
"jjjjjjjjjjjjjjjjjjjiuw0000000000qqq7448wuiiqjjjjjjjjjjjjjjjjjjjj",
"jjjjjjjjjjjjjjjjjuiw00077880q0eqq0<%+.#&>5wipqjjjjjjjjjjjjjjjjjj",
"jjjjjjjjjjjjjjjjiyq092=#@$%->3453-OXoo   @;6wspqjjjjjjjjjjjjjjjj",
"jjjjjjjjjjjjjjqiw004*O  XXXXXO++. oo.oo o .@,0asqjjjjjjjjjjjjjjj",
"jjjjjjjjjjjjjqiq09<@    XXXXXXXX.ooo        .=8afqjjjjjjjjjjjjjj",
"jjjjjjjjjjjjqiq08;. +#&***%@OXXo.oo .@$***%@..%7sfwjjjjjjjjjjjjj",
"jjjjjjjjjjjjyw09>@=3eisssspq5:$O .#;380wq0084,&=9fsqjjjjjjjjjjjj",
"jjjjjjjjjjjww004>0shhhhhhhhhhdw3*10uuw00000q00946igi0jjjjjjjjjjj",
"jjjjjjjjjjqiq00qshhhhgfggghhhhhdwwiq09000009000000sfqjjjjjjjjjjj",
"jjjjjjjjjjuw00qdhhgaiqqqwypdhhhhgw0900000000000000qap0jjjjjjjjjj",
"jjjjjjjjjjpq00phhsw00963337qufhhhd00000090000090009qwqjjjjjjjjjj",
"jjjjjjjjjwi000shsq00q0<%+O$>8qdhggi096<-*=;<7000090000jjjjjjjjjj",
"jjjjjjjjjwu000dfq000ypau6*o+4qwfhhsq5#o     @<900000000jjjjjjjjj",
"jjjjjjjjjwy000iu009000qwai<<ia0ughgu6#  .@&**-509000090jjjjjjjjj",
"jjjjjjjjjqy00000090000000uuwsq00shha0<.&30pssssiy090000jjjjjjjjj",
"jjjjjjjjjqq000090000000009wswq00whhdq84ifghhhhhhgdy0900jjjjjjjjj",
"jjjjjjjjj000000004:=;1800uaq0004:phg0udhhhhhhhhhhhgu00jjjjjjjjjj",
"jjjjjjjjj00000906#  .*6wiiq0005$.3dpughhhgsappsghhhgu0jjjjjjjjjj",
"jjjjjjjjjj00000083136qpiqq0008*X *qahhhfpw00000ydhhhsqjjjjjjjjjj",
"jjjjjjjjjj000900000qww00000009* o>igghsw0061>><8wfhhhijjjjjjjjjj",
"jjjjjjjjjj000000000000000000004+-wghgpq006&. .%80ughhs0jjjjjjjjj",
"jjjjjjjjj0yy000000000000080w0091eghgp090up03<4wp0wfhhdqjjjjjjjjj",
"jjjjjjjjj9ysw990000000005;3uu000ahgp000wghhfffguyudhhgwjjjjjjjjj",
"jjjjjjjjj0qddw000077741*+ =0p000wau00000shhhhhaqduahhfwjjjjjjjjj",
"jjjjjjjjj00pggaw07:%@.    +5yw000009:,900ypsau0pswahhfwjjjjjjjjj",
"jjjjjjjjjj0qaghdpw84:%#@#%>800000906#.=4800000ysw0ahhf0jjjjjjjjj",
"jjjjjjjjjj09qshhhgssu0979wssw90000006,-->500qpaq00shhd0jjjjjjjjj",
"jjjjjjjjjj0000pghhhhhgffgghhi0000000000880yuuy000qfhhpjjjjjjjjjj",
"jjjjjjjjjjj0000waghhhhhhhhhgu900090000000qqq00000wghgqjjjjjjjjjj",
"jjjjjjjjjjj009000wusdffgfdsiq08600000000000000065shhp0jjjjjjjjjj",
"jjjjjjjjjjjj00033800qqqwqqqe82%+-3800000000006:*9ghdqjjjjjjjjjjj",
"jjjjjjjjjjjj0006%%:26788753:%OXX .%;1578874<=++4dhgyjjjjjjjjjjjj",
"jjjjjjjjjjjjj0004@ .+@#@#+OoXoooo.  .+###@+  @3shgijjjjjjjjjjjjj",
"jjjjjjjjjjjjjj0006%     XXXOOoXo .o.o      .%5dhhpjjjjjjjjjjjjjj",
"jjjjjjjjjjjjjjj0008>@   oooooXX++.    o   @:qdhfijjjjjjjjjjjjjjj",
"jjjjjjjjjjjjjjjj00005;#oXXXXXO;9e521:%++#;8shhfwjjjjjjjjjjjjjjjj",
"jjjjjjjjjjjjjjjjjj000072;&$@%2tpagggfarrudhhfpqjjjjjjjjjjjjjjjjj",
"jjjjjjjjjjjjjjjjjjjj00qwiq08pgaysghhghhhhgspqjjjjjjjjjjjjjjjjjjj",
"jjjjjjjjjjjjjjjjjjjjjj00qqewghhgghghhfsiwq00jjjjjjjjjjjjjjjjjjjj",
"jjjjjjjjjjjjjjjjjjjjjjjjjjjqyywwdhgdiqq0ejjjjjjjjjjjjjjjjjjjjjjj",
"jjjjjjjjjjjjjjjjjjjjjjjjjjjjj0qwtiwq00jjjjjjjjjjjjjjjjjjjjjjjjjj",
"jjjjjjjjjjjjjjjjjjjjjjjjjjjjjj00000jjjjjjjjjjjjjjjjjjjjjjjjjjjjj",
"jjjjjjjjjjjjjjjjjjjjjjjjjjjjjjjjjjjjjjjjjjjjjjjjjjjjjjjjjjjjjjjj",
"jjjjjjjjjjjjjjjjjjjjjjjjjjjjjjjjjjjjjjjjjjjjjjjjjjjjjjjjjjjjjjjj",
"jjjjjjjjjjjjjjjjjjjjjjjjjjjjjjjjjjjjjjjjjjjjjjjjjjjjjjjjjjjjjjjj",
"jjjjjjjjjjjjjjjjjjjjjjjjjjjjjjjjjjjjjjjjjjjjjjjjjjjjjjjjjjjjjjjj",
"jjjjjjjjjjjjjjjjjjjjjjjjjjjjjjjjjjjjjjjjjjjjjjjjjjjjjjjjjjjjjjjj",
"jjjjjjjjjjjjjjjjjjjjjjjjjjjjjjjjjjjjjjjjjjjjjjjjjjjjjjjjjjjjjjjj",
"jjjjjjjjjjjjjjjjjjjjjjjjjjjjjjjjjjjjjjjjjjjjjjjjjjjjjjjjjjjjjjjj",
"jjjjjjjjjjjjjjjjjjjjjjjjjjjjjjjjjjjjjjjjjjjjjjjjjjjjjjjjjjjjjjjj",
"jjjjjjjjjjjjjjjjjjjjjjjjjjjjjjjjjjjjjjjjjjjjjjjjjjjjjjjjjjjjjjjj"
};
